<?xml version="1.0" encoding="UTF-8"?>
<svg version="1.1" xmlns="http://www.w3.org/2000/svg" width="64" height="64">
<path d="M0 0 C8.34468007 4.97590182 13.53387008 11.86345977 16.109375 21.2578125 C17.10789012 32.35758522 16.45884702 41.9922991 9.359375 51.0703125 C3.70168013 57.1280464 -3.34488592 60.84888618 -11.625 61.59375 C-22.35447774 61.83515993 -31.19802606 60.58332943 -39.359375 52.9609375 C-46.75303791 44.73737365 -48.47252567 36.02335615 -48.203125 25.24609375 C-47.72879865 16.86039919 -44.11592977 9.8548755 -37.890625 4.2578125 C-27.15195714 -3.81766573 -12.32399863 -5.91386512 0 0 Z M-36.75390625 10.87109375 C-42.41323795 17.19257761 -44.19605567 23.78798497 -43.890625 32.2578125 C-42.92534657 37.89915281 -41.62187298 42.66858989 -36.890625 46.2578125 C-36.395625 45.0615625 -35.900625 43.8653125 -35.390625 42.6328125 C-32.97905222 37.72229112 -29.41769969 35.15865648 -24.890625 32.2578125 C-25.550625 31.2678125 -26.210625 30.2778125 -26.890625 29.2578125 C-29.31649992 24.9692122 -29.512082 22.15178637 -28.890625 17.2578125 C-26.66925937 12.89735403 -24.45495471 10.12503829 -19.890625 8.2578125 C-15.06339408 7.72145351 -12.91171714 7.73763349 -8.578125 9.9453125 C-4.45181592 13.49585752 -3.06964615 15.6721966 -2.453125 21.1328125 C-2.59996462 25.67620316 -4.40308006 28.52649509 -6.890625 32.2578125 C-6.35953125 32.598125 -5.8284375 32.9384375 -5.28125 33.2890625 C0.1484462 37.01454748 2.5935067 40.17779744 5.109375 46.2578125 C9.84062298 42.66858989 11.14409657 37.89915281 12.109375 32.2578125 C12.43830036 23.13645926 10.04751257 16.17630778 3.859375 9.5078125 C-8.76049908 -2.20300285 -24.7453368 -0.83584758 -36.75390625 10.87109375 Z M-23.890625 16.2578125 C-25.31724719 19.11105687 -25.20096368 21.09235799 -24.890625 24.2578125 C-23.09068726 26.95771912 -21.806852 28.799699 -18.890625 30.2578125 C-15.01848318 30.68805048 -13.36566129 30.57450336 -10.078125 28.3828125 C-7.49795684 25.87636343 -6.97344536 25.00319577 -6.578125 21.4453125 C-6.96226858 17.527048 -8.18318817 16.04487983 -10.890625 13.2578125 C-16.1888092 10.6087204 -19.8991188 12.38034933 -23.890625 16.2578125 Z M-29.203125 41.5703125 C-31.74212537 44.68605708 -32.69133058 47.17227696 -32.890625 51.2578125 C-25.79753687 56.5776286 -19.32659575 57.84380621 -10.5859375 56.796875 C-6.58041607 55.99577071 -3.12502216 54.79912455 0.109375 52.2578125 C1.61386668 49.98581232 1.61386668 49.98581232 1.109375 47.2578125 C-1.27540509 41.82051389 -3.59318706 39.18831009 -8.890625 36.2578125 C-17.02156868 33.54749794 -23.43249936 35.37477143 -29.203125 41.5703125 Z " fill="#858BB1" transform="translate(47.890625,2.7421875)"/>
</svg>
